<svg width="44" height="44" viewBox="0 0 44 44" fill="none" xmlns="http://www.w3.org/2000/svg">
<path d="M32.4167 1.1665H11.5833C5.83036 1.1665 1.16666 5.8302 1.16666 11.5832V32.4165C1.16666 38.1695 5.83036 42.8332 11.5833 42.8332H32.4167C38.1696 42.8332 42.8333 38.1695 42.8333 32.4165V11.5832C42.8333 5.8302 38.1696 1.1665 32.4167 1.1665Z" stroke="white" stroke-width="2" stroke-linecap="round" stroke-linejoin="round"/>
<path d="M30.3333 20.6876C30.5905 22.4215 30.2943 24.1923 29.487 25.7481C28.6797 27.3039 27.4024 28.5656 25.8367 29.3536C24.2711 30.1417 22.4968 30.416 20.7662 30.1375C19.0357 29.859 17.437 29.042 16.1976 27.8026C14.9582 26.5631 14.1411 24.9645 13.8627 23.2339C13.5842 21.5034 13.8585 19.7291 14.6465 18.1634C15.4346 16.5978 16.6962 15.3204 18.2521 14.5131C19.8079 13.7059 21.5787 13.4097 23.3125 13.6668C25.0811 13.9291 26.7185 14.7532 27.9827 16.0174C29.247 17.2817 30.0711 18.9191 30.3333 20.6876Z" stroke="white" stroke-width="2" stroke-linecap="round" stroke-linejoin="round"/>
<path d="M33.4583 10.5415H33.4792" stroke="white" stroke-width="2" stroke-linecap="round" stroke-linejoin="round"/>
</svg>
