<svg width="26" height="30" viewBox="0 0 26 30" fill="none" xmlns="http://www.w3.org/2000/svg">
<path d="M24.1914 12.5C24.1914 21.25 12.95 28.75 12.95 28.75C12.95 28.75 1.70868 21.25 1.70868 12.5C1.70868 9.51631 2.89303 6.65483 5.00119 4.54505C7.10935 2.43526 9.96863 1.25 12.95 1.25C15.9314 1.25 18.7907 2.43526 20.8989 4.54505C23.007 6.65483 24.1914 9.51631 24.1914 12.5Z" stroke="#17C2EC" stroke-width="2" stroke-linecap="round" stroke-linejoin="round"/>
<path d="M12.95 16.25C15.0195 16.25 16.6971 14.5711 16.6971 12.5C16.6971 10.4289 15.0195 8.75 12.95 8.75C10.8805 8.75 9.20288 10.4289 9.20288 12.5C9.20288 14.5711 10.8805 16.25 12.95 16.25Z" stroke="#17C2EC" stroke-width="2" stroke-linecap="round" stroke-linejoin="round"/>
</svg>
