<svg width="50" height="49" viewBox="0 0 50 49" fill="none" xmlns="http://www.w3.org/2000/svg">
<g clip-path="url(#clip0_5_69)">
<path d="M35.2911 42.3555V38.2807C35.2911 36.1192 34.4324 34.0463 32.9041 32.518C31.3757 30.9896 29.3028 30.131 27.1414 30.131H10.842C8.68056 30.131 6.60766 30.9896 5.07929 32.518C3.55093 34.0463 2.69231 36.1192 2.69231 38.2807V42.3555" stroke="white" stroke-width="2.99376" stroke-linecap="round" stroke-linejoin="round"/>
<path d="M18.9917 21.9813C23.4926 21.9813 27.1414 18.3325 27.1414 13.8316C27.1414 9.33062 23.4926 5.68188 18.9917 5.68188C14.4907 5.68188 10.842 9.33062 10.842 13.8316C10.842 18.3325 14.4907 21.9813 18.9917 21.9813Z" stroke="white" stroke-width="2.99376" stroke-linecap="round" stroke-linejoin="round"/>
<path d="M47.5156 42.3554V38.2806C47.5142 36.4749 46.9132 34.7207 45.8069 33.2936C44.7006 31.8665 43.1517 30.8472 41.4033 30.3958" stroke="white" stroke-width="2.99376" stroke-linecap="round" stroke-linejoin="round"/>
<path d="M33.2536 5.94678C35.0067 6.39562 36.5604 7.41515 37.67 8.84462C38.7796 10.2741 39.3819 12.0322 39.3819 13.8418C39.3819 15.6514 38.7796 17.4095 37.67 18.839C36.5604 20.2684 35.0067 21.288 33.2536 21.7368" stroke="white" stroke-width="2.99376" stroke-linecap="round" stroke-linejoin="round"/>
</g>
<defs>
<clipPath id="clip0_5_69">
<rect width="48.8981" height="48.8981" fill="white" transform="translate(0.654884 -0.430298)"/>
</clipPath>
</defs>
</svg>
