<svg width="22" height="48" viewBox="0 0 22 48" fill="none" xmlns="http://www.w3.org/2000/svg">
<path d="M16.2973 29.642V6.70061C16.2973 5.34972 15.7607 4.05415 14.8054 3.09892C13.8502 2.1437 12.5546 1.60706 11.2037 1.60706C9.85284 1.60706 8.55728 2.1437 7.60205 3.09892C6.64682 4.05415 6.11018 5.34972 6.11018 6.70061V29.642C4.4747 30.7347 3.234 32.3245 2.57133 34.1765C1.90866 36.0284 1.85914 38.0444 2.4301 39.9267C3.00107 41.8089 4.16223 43.4577 5.7421 44.6294C7.32197 45.8011 9.23678 46.4337 11.2037 46.4337C13.1707 46.4337 15.0855 45.8011 16.6654 44.6294C18.2453 43.4577 19.4064 41.8089 19.9774 39.9267C20.5483 38.0444 20.4988 36.0284 19.8362 34.1765C19.1735 32.3245 17.9328 30.7347 16.2973 29.642Z" stroke="white" stroke-width="2.99376" stroke-linecap="round" stroke-linejoin="round"/>
</svg>
