<svg width="48" height="40" viewBox="0 0 48 40" fill="none" xmlns="http://www.w3.org/2000/svg">
<path d="M46.9166 1.24995C44.9216 2.6572 42.7127 3.73351 40.375 4.43745C39.1203 2.99477 37.4528 1.97223 35.598 1.50813C33.7432 1.04404 31.7906 1.16078 30.0043 1.84256C28.218 2.52435 26.6842 3.73829 25.6104 5.3202C24.5365 6.9021 23.9743 8.77565 24 10.6875V12.7708C20.3388 12.8657 16.711 12.0537 13.4396 10.4071C10.1682 8.76054 7.35481 6.33044 5.24998 3.33329C5.24998 3.33329 -3.08335 22.0833 15.6666 30.4166C11.3761 33.3291 6.26489 34.7894 1.08331 34.5833C19.8333 45 42.75 34.5833 42.75 10.625C42.7481 10.0446 42.6923 9.46578 42.5833 8.89579C44.7096 6.7989 46.21 4.15144 46.9166 1.24995V1.24995Z" stroke="white" stroke-width="2" stroke-linecap="round" stroke-linejoin="round"/>
</svg>
