<svg width="48" height="35" viewBox="0 0 48 35" fill="none" xmlns="http://www.w3.org/2000/svg">
<path d="M45.9583 6.37516C45.7109 5.38643 45.2069 4.48052 44.4972 3.74893C43.7876 3.01733 42.8974 2.48596 41.9167 2.2085C38.3333 1.3335 24 1.3335 24 1.3335C24 1.3335 9.66668 1.3335 6.08334 2.29183C5.10261 2.5693 4.21246 3.10066 3.50282 3.83226C2.79317 4.56385 2.28915 5.46977 2.04168 6.4585C1.38587 10.0951 1.06509 13.7841 1.08334 17.4793C1.05997 21.2023 1.38078 24.9195 2.04168 28.5835C2.31451 29.5415 2.82982 30.413 3.53781 31.1137C4.24581 31.8144 5.12255 32.3206 6.08334 32.5835C9.66668 33.5418 24 33.5418 24 33.5418C24 33.5418 38.3333 33.5418 41.9167 32.5835C42.8974 32.306 43.7876 31.7747 44.4972 31.0431C45.2069 30.3115 45.7109 29.4056 45.9583 28.4168C46.6091 24.8076 46.9299 21.1467 46.9167 17.4793C46.9401 13.7563 46.6192 10.0391 45.9583 6.37516V6.37516Z" stroke="white" stroke-width="2" stroke-linecap="round" stroke-linejoin="round"/>
<path d="M19.3125 24.2915L31.2917 17.479L19.3125 10.6665V24.2915Z" stroke="white" stroke-width="2" stroke-linecap="round" stroke-linejoin="round"/>
</svg>
